<svg id="visual" viewBox="0 0 2000 300" width="2000" height="300" xmlns="http://www.w3.org/2000/svg" xmlns:xlink="http://www.w3.org/1999/xlink" version="1.1"><path d="M0 31L105 58L211 61L316 61L421 55L526 49L632 52L737 37L842 37L947 49L1053 34L1158 52L1263 52L1368 46L1474 58L1579 49L1684 43L1789 49L1895 55L2000 49L2000 0L1895 0L1789 0L1684 0L1579 0L1474 0L1368 0L1263 0L1158 0L1053 0L947 0L842 0L737 0L632 0L526 0L421 0L316 0L211 0L105 0L0 0Z" fill="#038373"></path><path d="M0 61L105 82L211 91L316 88L421 103L526 70L632 85L737 85L842 73L947 76L1053 67L1158 82L1263 100L1368 76L1474 97L1579 88L1684 73L1789 79L1895 79L2000 97L2000 47L1895 53L1789 47L1684 41L1579 47L1474 56L1368 44L1263 50L1158 50L1053 32L947 47L842 35L737 35L632 50L526 47L421 53L316 59L211 59L105 56L0 29Z" fill="#00957c"></path><path d="M0 133L105 151L211 157L316 130L421 130L526 145L632 157L737 148L842 115L947 130L1053 112L1158 139L1263 163L1368 130L1474 148L1579 124L1684 145L1789 124L1895 139L2000 151L2000 95L1895 77L1789 77L1684 71L1579 86L1474 95L1368 74L1263 98L1158 80L1053 65L947 74L842 71L737 83L632 83L526 68L421 101L316 86L211 89L105 80L0 59Z" fill="#00a784"></path><path d="M0 229L105 238L211 235L316 184L421 211L526 205L632 217L737 214L842 169L947 232L1053 202L1158 214L1263 244L1368 196L1474 247L1579 196L1684 241L1789 208L1895 217L2000 205L2000 149L1895 137L1789 122L1684 143L1579 122L1474 146L1368 128L1263 161L1158 137L1053 110L947 128L842 113L737 146L632 155L526 143L421 128L316 128L211 155L105 149L0 131Z" fill="#00b98a"></path><path d="M0 301L105 301L211 301L316 301L421 301L526 301L632 301L737 301L842 301L947 301L1053 301L1158 301L1263 301L1368 301L1474 301L1579 301L1684 301L1789 301L1895 301L2000 301L2000 203L1895 215L1789 206L1684 239L1579 194L1474 245L1368 194L1263 242L1158 212L1053 200L947 230L842 167L737 212L632 215L526 203L421 209L316 182L211 233L105 236L0 227Z" fill="#00cc8e"></path></svg>