<svg id="visual" viewBox="0 0 2000 200" width="2000" height="200" xmlns="http://www.w3.org/2000/svg" xmlns:xlink="http://www.w3.org/1999/xlink" version="1.1"><path d="M0 21L105 39L211 41L316 41L421 37L526 33L632 35L737 25L842 25L947 33L1053 23L1158 35L1263 35L1368 31L1474 39L1579 33L1684 29L1789 33L1895 37L2000 33L2000 0L1895 0L1789 0L1684 0L1579 0L1474 0L1368 0L1263 0L1158 0L1053 0L947 0L842 0L737 0L632 0L526 0L421 0L316 0L211 0L105 0L0 0Z" fill="#038373"></path><path d="M0 41L105 55L211 61L316 59L421 69L526 47L632 57L737 57L842 49L947 51L1053 45L1158 55L1263 67L1368 51L1474 65L1579 59L1684 49L1789 53L1895 53L2000 65L2000 31L1895 35L1789 31L1684 27L1579 31L1474 37L1368 29L1263 33L1158 33L1053 21L947 31L842 23L737 23L632 33L526 31L421 35L316 39L211 39L105 37L0 19Z" fill="#00957c"></path><path d="M0 89L105 101L211 105L316 87L421 87L526 97L632 105L737 99L842 77L947 87L1053 75L1158 93L1263 109L1368 87L1474 99L1579 83L1684 97L1789 83L1895 93L2000 101L2000 63L1895 51L1789 51L1684 47L1579 57L1474 63L1368 49L1263 65L1158 53L1053 43L947 49L842 47L737 55L632 55L526 45L421 67L316 57L211 59L105 53L0 39Z" fill="#00a784"></path><path d="M0 153L105 159L211 157L316 123L421 141L526 137L632 145L737 143L842 113L947 155L1053 135L1158 143L1263 163L1368 131L1474 165L1579 131L1684 161L1789 139L1895 145L2000 137L2000 99L1895 91L1789 81L1684 95L1579 81L1474 97L1368 85L1263 107L1158 91L1053 73L947 85L842 75L737 97L632 103L526 95L421 85L316 85L211 103L105 99L0 87Z" fill="#00b98a"></path><path d="M0 201L105 201L211 201L316 201L421 201L526 201L632 201L737 201L842 201L947 201L1053 201L1158 201L1263 201L1368 201L1474 201L1579 201L1684 201L1789 201L1895 201L2000 201L2000 135L1895 143L1789 137L1684 159L1579 129L1474 163L1368 129L1263 161L1158 141L1053 133L947 153L842 111L737 141L632 143L526 135L421 139L316 121L211 155L105 157L0 151Z" fill="#00cc8e"></path></svg>