<svg id="visual" viewBox="0 0 900 450" width="900" height="450" xmlns="http://www.w3.org/2000/svg" xmlns:xlink="http://www.w3.org/1999/xlink" version="1.1"><rect x="0" y="0" width="900" height="450" fill="#002233"></rect><path d="M0 206L8.8 201.7C17.7 197.3 35.3 188.7 53 183.2C70.7 177.7 88.3 175.3 106 189.8C123.7 204.3 141.3 235.7 159 258.3C176.7 281 194.3 295 212 287.8C229.7 280.7 247.3 252.3 265 246.3C282.7 240.3 300.3 256.7 318 270C335.7 283.3 353.3 293.7 371 292.8C388.7 292 406.3 280 423.8 277.8C441.3 275.7 458.7 283.3 476.2 289.3C493.7 295.3 511.3 299.7 529 306.2C546.7 312.7 564.3 321.3 582 301.7C599.7 282 617.3 234 635 210.2C652.7 186.3 670.3 186.7 688 201.8C705.7 217 723.3 247 741 265C758.7 283 776.3 289 794 281C811.7 273 829.3 251 847 242.5C864.7 234 882.3 239 891.2 241.5L900 244L900 451L891.2 451C882.3 451 864.7 451 847 451C829.3 451 811.7 451 794 451C776.3 451 758.7 451 741 451C723.3 451 705.7 451 688 451C670.3 451 652.7 451 635 451C617.3 451 599.7 451 582 451C564.3 451 546.7 451 529 451C511.3 451 493.7 451 476.2 451C458.7 451 441.3 451 423.8 451C406.3 451 388.7 451 371 451C353.3 451 335.7 451 318 451C300.3 451 282.7 451 265 451C247.3 451 229.7 451 212 451C194.3 451 176.7 451 159 451C141.3 451 123.7 451 106 451C88.3 451 70.7 451 53 451C35.3 451 17.7 451 8.8 451L0 451Z" fill="#0066FF" stroke-linecap="round" stroke-linejoin="miter"></path></svg>